# xmcd
#
# Track frame offsets:
#	150
#	11706
#	34031
#	53185
#	70541
#	86277
#	102793
#	116309
#	129679
#	145713
#	161547
#	172757
#
# Disc length: 2536 seconds
#
# Revision: 1
# Processed by: cddbd v1.5.1PL0 Copyright (c) Steve Scherf et al.
# Submitted via: CDex 1.50Beta5
#
DISCID=8a09e60c
DTITLE=大江戸宅急便 - Pura -Hello Let's meet with a clock tower.-
DYEAR=1900
DGENRE=Soundtrack
TTITLE0=Rag All Night Long
TTITLE1=Stream-水流-
TTITLE2=Tetra
TTITLE3=Melancholy
TTITLE4=Love Eacape HC Mix
TTITLE5=cmd-d-k
TTITLE6=a LightHouse-comodo-
TTITLE7=Area
TTITLE8=UTGR2 forA
TTITLE9=Slave
TTITLE10=陽炎
TTITLE11=I say my be...HC Mix
EXTD=
EXTT0=
EXTT1=
EXTT2=
EXTT3=
EXTT4=
EXTT5=
EXTT6=
EXTT7=
EXTT8=
EXTT9=
EXTT10=
EXTT11=
PLAYORDER=
